<?xml version="1.0" encoding="UTF-8" standalone="no"?>
<?xml-stylesheet href="common/css/sf.css" type="text/css"?>
<!DOCTYPE svg PUBLIC "-//W3C//DTD SVG 1.1//EN"
 "http://www.w3.org/Graphics/SVG/1.1/DTD/svg11.dtd">
<!-- Generated by graphviz version 14.0.5 (0)
 -->
<!-- Pages: 1 -->
<svg width="500pt" height="610pt"
 viewBox="0.00 22.00 500.00 588.00" xmlns="http://www.w3.org/2000/svg" xmlns:xlink="http://www.w3.org/1999/xlink">
<g id="graph0" class="graph deps" transform="scale(1 1) rotate(0) translate(4 584.35)">
<polygon fill="white" stroke="none" points="-4,4 -4,-562.75 495.5,-562.75 495.5,4 -4,4"/>
<!-- LogicalFoundations -->
<g id="node1" class="node">
<title>LogicalFoundations</title>
<g id="a_node1"><a xlink:title="Go to chapter" target="_top">
<polygon fill="none" stroke="black" stroke-dasharray="1,5" points="183.05,-531.77 17.25,-531.77 17.25,-495.77 183.05,-495.77 183.05,-531.77"/>
<text xml:space="preserve" text-anchor="start" x="35.65" y="-510.07" font-family="Times,serif" font-size="11.00"> &#160;&#160;&#160;&#160;Logical Foundations &#160;&#160;&#160;&#160;&#160;&#160;&#160;</text>
</a>
</g>
</g>
<!-- Preface -->
<g id="node3" class="node">
<title>Preface</title>
<g id="a_node3"><a xlink:href="Preface.html" xlink:title="Go to chapter" target="_top">
<polygon fill="lightblue" stroke="black" points="131.8,-432.8 68.5,-432.8 68.5,-396.8 131.8,-396.8 131.8,-432.8"/>
<text xml:space="preserve" text-anchor="middle" x="100.15" y="-411.1" font-family="Times,serif" font-size="11.00">Preface</text>
</a>
</g>
</g>
<!-- LogicalFoundations&#45;&gt;Preface -->
<g id="edge1" class="edge">
<title>LogicalFoundations&#45;&gt;Preface</title>
<path fill="none" stroke="gray" d="M94.83,-495.44C93.29,-481.23 92.99,-460.85 93.94,-444.25"/>
<polygon fill="gray" stroke="gray" points="97.41,-444.75 94.73,-434.5 90.43,-444.18 97.41,-444.75"/>
</g>
<!-- LogicalFoundations&#45;&gt;Preface -->
<g id="edge7" class="edge">
<title>LogicalFoundations&#45;&gt;Preface</title>
<path fill="none" stroke="blue" d="M105.47,-495.44C107.01,-481.23 107.31,-460.85 106.36,-444.25"/>
<polygon fill="blue" stroke="blue" points="109.87,-444.18 105.57,-434.5 102.89,-444.75 109.87,-444.18"/>
</g>
<!-- legend -->
<g id="node2" class="node">
<title>legend</title>
<g id="a_node2"><a xlink:title="Go to chapter" target="_top">
<polygon fill="WhiteSmoke" stroke="none" points="491.5,-558.75 284.8,-558.75 284.8,-468.8 491.5,-468.8 491.5,-558.75"/>
<polygon fill="lightblue" stroke="none" points="288.4,-521.9 288.4,-555.15 370.4,-555.15 370.4,-521.9 288.4,-521.9"/>
<polygon fill="none" stroke="#7f7f7f" points="288.4,-521.9 288.4,-555.15 370.4,-555.15 370.4,-521.9 288.4,-521.9"/>
<text xml:space="preserve" text-anchor="start" x="299.4" y="-534.65" font-family="Times,serif" font-size="10.00"> Core chapters </text>
<polygon fill="lightyellow" stroke="none" points="380.4,-521.9 380.4,-555.15 487.9,-555.15 487.9,-521.9 380.4,-521.9"/>
<polygon fill="none" stroke="#7f7f7f" points="380.4,-521.9 380.4,-555.15 487.9,-555.15 487.9,-521.9 380.4,-521.9"/>
<text xml:space="preserve" text-anchor="start" x="391.4" y="-534.65" font-family="Times,serif" font-size="10.00">Contributed chapters</text>
<text xml:space="preserve" text-anchor="start" x="293.4" y="-504.4" font-family="Times,serif" font-size="10.00" fill="gray">⟶</text>
<text xml:space="preserve" text-anchor="start" x="307.65" y="-504.4" font-family="Times,serif" font-size="10.00"> &#160;&#160;&#160;&#160;Chapter dependencies</text>
<text xml:space="preserve" text-anchor="start" x="293.4" y="-481.65" font-family="Times,serif" font-size="10.00" fill="blue">⟶</text>
<text xml:space="preserve" text-anchor="start" x="307.65" y="-481.65" font-family="Times,serif" font-size="10.00"> &#160;&#160;&#160;&#160;Recommended path for semester course</text>
</a>
</g>
</g>
<!-- Noninterference -->
<g id="node6" class="node">
<title>Noninterference</title>
<g id="a_node6"><a xlink:href="Noninterference.html" xlink:title="Go to chapter" target="_top">
<polygon fill="lightblue" stroke="black" points="199.93,-360.8 0.38,-360.8 0.38,-315.6 199.93,-315.6 199.93,-360.8"/>
<text xml:space="preserve" text-anchor="start" x="63.78" y="-342.75" font-family="Times,serif" font-size="11.00">Noninterference</text>
<text xml:space="preserve" text-anchor="start" x="18.78" y="-325.15" font-family="Times,serif" font-size="9.00">Defining Secrecy and Secure Multi&#45;Execution</text>
</a>
</g>
</g>
<!-- Preface&#45;&gt;Noninterference -->
<g id="edge2" class="edge">
<title>Preface&#45;&gt;Noninterference</title>
<path fill="none" stroke="gray" d="M94.35,-396.5C93.6,-389.36 93.29,-380.83 93.43,-372.57"/>
<polygon fill="gray" stroke="gray" points="96.92,-372.89 93.86,-362.74 89.93,-372.58 96.92,-372.89"/>
</g>
<!-- Preface&#45;&gt;Noninterference -->
<g id="edge8" class="edge">
<title>Preface&#45;&gt;Noninterference</title>
<path fill="none" stroke="blue" d="M105.95,-396.5C106.7,-389.36 107.01,-380.83 106.87,-372.57"/>
<polygon fill="blue" stroke="blue" points="110.37,-372.58 106.44,-362.74 103.38,-372.89 110.37,-372.58"/>
</g>
<!-- Postscript -->
<g id="node4" class="node">
<title>Postscript</title>
<g id="a_node4"><a xlink:href="Postscript.html" xlink:title="Go to chapter" target="_top">
<polygon fill="lightblue" stroke="black" points="136.3,-117.2 64,-117.2 64,-81.2 136.3,-81.2 136.3,-117.2"/>
<text xml:space="preserve" text-anchor="middle" x="100.15" y="-95.5" font-family="Times,serif" font-size="11.00">Postscript</text>
</a>
</g>
</g>
<!-- Bib -->
<g id="node5" class="node">
<title>Bib</title>
<g id="a_node5"><a xlink:href="Bib.html" xlink:title="Go to chapter" target="_top">
<polygon fill="lightblue" stroke="black" points="141.8,-45.2 58.5,-45.2 58.5,0 141.8,0 141.8,-45.2"/>
<text xml:space="preserve" text-anchor="start" x="92.28" y="-27.15" font-family="Times,serif" font-size="11.00">Bib</text>
<text xml:space="preserve" text-anchor="start" x="76.9" y="-9.55" font-family="Times,serif" font-size="9.00">Bibliography</text>
</a>
</g>
</g>
<!-- Postscript&#45;&gt;Bib -->
<g id="edge6" class="edge">
<title>Postscript&#45;&gt;Bib</title>
<path fill="none" stroke="gray" d="M94.35,-80.9C93.6,-73.76 93.29,-65.23 93.43,-56.97"/>
<polygon fill="gray" stroke="gray" points="96.92,-57.29 93.86,-47.14 89.93,-56.98 96.92,-57.29"/>
</g>
<!-- Postscript&#45;&gt;Bib -->
<g id="edge12" class="edge">
<title>Postscript&#45;&gt;Bib</title>
<path fill="none" stroke="blue" d="M105.95,-80.9C106.7,-73.76 107.01,-65.23 106.87,-56.97"/>
<polygon fill="blue" stroke="blue" points="110.37,-56.98 106.44,-47.14 103.38,-57.29 110.37,-56.98"/>
</g>
<!-- StaticIFC -->
<g id="node7" class="node">
<title>StaticIFC</title>
<g id="a_node7"><a xlink:href="StaticIFC.html" xlink:title="Go to chapter" target="_top">
<polygon fill="lightblue" stroke="black" points="190.93,-279.6 9.38,-279.6 9.38,-234.4 190.93,-234.4 190.93,-279.6"/>
<text xml:space="preserve" text-anchor="start" x="78.78" y="-261.55" font-family="Times,serif" font-size="11.00">StaticIFC</text>
<text xml:space="preserve" text-anchor="start" x="27.78" y="-243.95" font-family="Times,serif" font-size="9.00">Information Flow Control Type Systems</text>
</a>
</g>
</g>
<!-- Noninterference&#45;&gt;StaticIFC -->
<g id="edge3" class="edge">
<title>Noninterference&#45;&gt;StaticIFC</title>
<path fill="none" stroke="gray" d="M94.03,-315.14C93.46,-307.76 93.28,-299.36 93.48,-291.31"/>
<polygon fill="gray" stroke="gray" points="96.97,-291.61 93.96,-281.46 89.97,-291.27 96.97,-291.61"/>
</g>
<!-- Noninterference&#45;&gt;StaticIFC -->
<g id="edge9" class="edge">
<title>Noninterference&#45;&gt;StaticIFC</title>
<path fill="none" stroke="blue" d="M106.27,-315.14C106.84,-307.76 107.02,-299.36 106.82,-291.31"/>
<polygon fill="blue" stroke="blue" points="110.33,-291.27 106.34,-281.46 103.33,-291.61 110.33,-291.27"/>
</g>
<!-- SpecCT -->
<g id="node8" class="node">
<title>SpecCT</title>
<g id="a_node8"><a xlink:href="SpecCT.html" xlink:title="Go to chapter" target="_top">
<polygon fill="lightblue" stroke="black" points="200.3,-198.4 0,-198.4 0,-153.2 200.3,-153.2 200.3,-198.4"/>
<text xml:space="preserve" text-anchor="start" x="82.15" y="-180.35" font-family="Times,serif" font-size="11.00">SpecCT</text>
<text xml:space="preserve" text-anchor="start" x="18.4" y="-162.75" font-family="Times,serif" font-size="9.00">Cryptographic and Speculative Constant&#45;Time</text>
</a>
</g>
</g>
<!-- StaticIFC&#45;&gt;SpecCT -->
<g id="edge4" class="edge">
<title>StaticIFC&#45;&gt;SpecCT</title>
<path fill="none" stroke="gray" d="M94.03,-233.94C93.46,-226.56 93.28,-218.16 93.48,-210.11"/>
<polygon fill="gray" stroke="gray" points="96.97,-210.41 93.96,-200.26 89.97,-210.07 96.97,-210.41"/>
</g>
<!-- StaticIFC&#45;&gt;SpecCT -->
<g id="edge10" class="edge">
<title>StaticIFC&#45;&gt;SpecCT</title>
<path fill="none" stroke="blue" d="M106.27,-233.94C106.84,-226.56 107.02,-218.16 106.82,-210.11"/>
<polygon fill="blue" stroke="blue" points="110.33,-210.07 106.34,-200.26 103.33,-210.41 110.33,-210.07"/>
</g>
<!-- SpecCT&#45;&gt;Postscript -->
<g id="edge5" class="edge">
<title>SpecCT&#45;&gt;Postscript</title>
<path fill="none" stroke="gray" d="M93.93,-152.82C93.38,-145.29 93.26,-136.74 93.57,-128.76"/>
<polygon fill="gray" stroke="gray" points="97.06,-129.02 94.27,-118.8 90.07,-128.53 97.06,-129.02"/>
</g>
<!-- SpecCT&#45;&gt;Postscript -->
<g id="edge11" class="edge">
<title>SpecCT&#45;&gt;Postscript</title>
<path fill="none" stroke="blue" d="M106.37,-152.82C106.92,-145.29 107.04,-136.74 106.73,-128.76"/>
<polygon fill="blue" stroke="blue" points="110.23,-128.53 106.03,-118.8 103.24,-129.02 110.23,-128.53"/>
</g>
</g>
</svg>
